<svg xmlns="http://www.w3.org/2000/svg" xmlns:xlink="http://www.w3.org/1999/xlink" version="1.1" width="2000"
     height="2000" viewBox="100 100 870 870" xml:space="preserve">

<g transform="matrix(1 0 0 1 540 540)">
 <g transform="matrix(1.85 0 0 1.85 -0.49 -0.49)">
	<path style="stroke: none; stroke-width: 1; stroke-dasharray: none; stroke-linecap: butt; stroke-dashoffset: 0; stroke-linejoin: miter; stroke-miterlimit: 4; fill: rgb(0,0,0); fill-rule: nonzero; opacity: 1;"
          vector-effect="non-scaling-stroke" transform=" translate(-215.95, -215.95)"
          d="M 423.908 152.051 C 428.326 152.051 431.908 148.469 431.908 144.051 C 431.908 139.63299999999998 428.326 136.051 423.908 136.051 L 399.90200000000004 136.051 L 399.90200000000004 104.11499999999998 L 423.908 104.11499999999998 C 428.326 104.11499999999998 431.908 100.53299999999999 431.908 96.11499999999998 C 431.908 91.69699999999997 428.326 88.11499999999998 423.908 88.11499999999998 L 399.90200000000004 88.11499999999998 L 399.90200000000004 71.996 C 399.90200000000004 49.94 381.958 31.995999999999995 359.90200000000004 31.995999999999995 L 343.79300000000006 31.995999999999995 L 343.79300000000006 8 C 343.79300000000006 3.582 340.21100000000007 0 335.79300000000006 0 C 331.37500000000006 0 327.79300000000006 3.582 327.79300000000006 8 L 327.79300000000006 31.996 L 295.85600000000005 31.996 L 295.85600000000005 8 C 295.85600000000005 3.582 292.27400000000006 0 287.85600000000005 0 C 283.43800000000005 0 279.85600000000005 3.582 279.85600000000005 8 L 279.85600000000005 31.996 L 247.92 31.996 L 247.92 8 C 247.92 3.582 244.338 0 239.92 0 C 235.50199999999998 0 231.92 3.582 231.92 8 L 231.92 31.996 L 199.98499999999999 31.996 L 199.98499999999999 8 C 199.98499999999999 3.582 196.403 0 191.98499999999999 0 C 187.56699999999998 0 183.98499999999999 3.582 183.98499999999999 8 L 183.98499999999999 31.996 L 152.04899999999998 31.996 L 152.04899999999998 8 C 152.04899999999998 3.582 148.46699999999998 0 144.04899999999998 0 C 139.63099999999997 0 136.04899999999998 3.582 136.04899999999998 8 L 136.04899999999998 31.996 L 104.11299999999997 31.996 L 104.11299999999997 8 C 104.11299999999997 3.582 100.53099999999998 0 96.11299999999997 0 C 91.69499999999996 0 88.11299999999997 3.582 88.11299999999997 8 L 88.11299999999997 31.996 L 71.985 31.996 C 49.929 31.996 31.985 49.94 31.985 71.996 L 31.985 88.115 L 8 88.115 C 3.582 88.115 0 91.69699999999999 0 96.115 C 0 100.533 3.582 104.115 8 104.115 L 31.985 104.115 L 31.985 136.051 L 8 136.051 C 3.582 136.051 0 139.63299999999998 0 144.051 C 0 148.469 3.582 152.051 8 152.051 L 31.985 152.051 L 31.985 183.987 L 8 183.987 C 3.582 183.987 0 187.569 0 191.987 C 0 196.405 3.582 199.987 8 199.987 L 31.985 199.987 L 31.985 231.922 L 8 231.922 C 3.582 231.922 0 235.504 0 239.922 C 0 244.34 3.582 247.922 8 247.922 L 31.985 247.922 L 31.985 279.858 L 8 279.858 C 3.582 279.858 0 283.44 0 287.858 C 0 292.276 3.582 295.858 8 295.858 L 31.985 295.858 L 31.985 327.794 L 8 327.794 C 3.582 327.794 0 331.376 0 335.794 C 0 340.212 3.582 343.794 8 343.794 L 31.985 343.794 L 31.985 359.913 C 31.985 381.969 49.929 399.913 71.985 399.913 L 88.113 399.913 L 88.113 423.908 C 88.113 428.326 91.695 431.908 96.113 431.908 C 100.531 431.908 104.113 428.326 104.113 423.908 L 104.113 399.913 L 136.049 399.913 L 136.049 423.908 C 136.049 428.326 139.631 431.908 144.049 431.908 C 148.467 431.908 152.049 428.326 152.049 423.908 L 152.049 399.913 L 183.985 399.913 L 183.985 423.908 C 183.985 428.326 187.567 431.908 191.985 431.908 C 196.40300000000002 431.908 199.985 428.326 199.985 423.908 L 199.985 399.913 L 231.92000000000002 399.913 L 231.92000000000002 423.908 C 231.92000000000002 428.326 235.502 431.908 239.92000000000002 431.908 C 244.33800000000002 431.908 247.92000000000002 428.326 247.92000000000002 423.908 L 247.92000000000002 399.913 L 279.856 399.913 L 279.856 423.908 C 279.856 428.326 283.438 431.908 287.856 431.908 C 292.274 431.908 295.856 428.326 295.856 423.908 L 295.856 399.913 L 327.793 399.913 L 327.793 423.908 C 327.793 428.326 331.375 431.908 335.793 431.908 C 340.211 431.908 343.793 428.326 343.793 423.908 L 343.793 399.913 L 359.902 399.913 C 381.95799999999997 399.913 399.902 381.969 399.902 359.913 L 399.902 343.794 L 423.908 343.794 C 428.326 343.794 431.908 340.212 431.908 335.794 C 431.908 331.376 428.326 327.794 423.908 327.794 L 399.90200000000004 327.794 L 399.90200000000004 295.858 L 423.908 295.858 C 428.326 295.858 431.908 292.276 431.908 287.858 C 431.908 283.44 428.326 279.858 423.908 279.858 L 399.90200000000004 279.858 L 399.90200000000004 247.922 L 423.908 247.922 C 428.326 247.922 431.908 244.34 431.908 239.922 C 431.908 235.504 428.326 231.922 423.908 231.922 L 399.90200000000004 231.922 L 399.90200000000004 199.987 L 423.908 199.987 C 428.326 199.987 431.908 196.405 431.908 191.987 C 431.908 187.569 428.326 183.987 423.908 183.987 L 399.90200000000004 183.987 L 399.90200000000004 152.051 L 423.908 152.051 z M 383.902 359.912 C 383.902 373.145 373.135 383.912 359.902 383.912 L 71.985 383.912 C 58.751999999999995 383.912 47.985 373.145 47.985 359.912 L 47.985 71.996 C 47.985 58.76199999999999 58.751999999999995 47.995999999999995 71.985 47.995999999999995 L 359.902 47.995999999999995 C 373.135 47.995999999999995 383.902 58.76199999999999 383.902 71.996 L 383.902 359.912 z"
          stroke-linecap="round"/>
</g>
        <g transform="matrix(1.85 0 0 1.85 -0.34 -0.32)">
<path style="stroke: none; stroke-width: 1; stroke-dasharray: none; stroke-linecap: butt; stroke-dashoffset: 0; stroke-linejoin: miter; stroke-miterlimit: 4; fill: rgb(0,0,0); fill-rule: nonzero; opacity: 1;"
      vector-effect="non-scaling-stroke" transform=" translate(-215.94, -215.95)"
      d="M 343.777 72.121 L 88.11 72.121 C 79.288 72.121 72.11 79.298 72.11 88.121 L 72.11 343.788 C 72.11 352.61 79.288 359.788 88.11 359.788 L 343.777 359.788 C 352.599 359.788 359.777 352.61 359.777 343.788 L 359.777 88.121 C 359.777 79.298 352.599 72.121 343.777 72.121 z M 88.11 343.787 L 88.11 88.121 L 343.777 88.121 L 343.779 343.788 L 88.11 343.788 z"
      stroke-linecap="round"/>
</g>

</g>
    <g transform="matrix(15.55 0 0 15.55 540 498)">
<path style="stroke: rgb(0,0,0); stroke-width: 0; stroke-dasharray: none; stroke-linecap: butt; stroke-dashoffset: 0; stroke-linejoin: miter; stroke-miterlimit: 4; fill: rgb(0,0,0); fill-rule: nonzero; opacity: 1;"
      vector-effect="non-scaling-stroke" transform=" translate(-12, -12)"
      d="M 20.83 2.976 L 20.744999999999997 3.071 C 20.319595823311584 3.542969309534022 19.9222465513983 4.039488945950028 19.55499999999999 4.558000000000002 C 19.388946952843163 4.786435033201431 19.239880039854157 5.02674694001555 19.108999999999995 5.277000000000001 C 19.00384480280479 5.466018156508481 18.92031811080773 5.666280948164083 18.859999999999996 5.8740000000000006 C 18.838315537805347 5.930498815889854 18.827132057204604 5.990482939112003 18.826999999999995 6.051 L 18.826999999999995 6.055 C 18.70005009114237 6.093863711041561 18.61431360101838 6.2122617212127835 18.616999999999994 6.345 C 18.61448506642481 6.469263469171637 18.68885475968186 6.582209955187697 18.803999999999995 6.629 C 18.841999999999995 7 18.883999999999993 7.770999999999999 18.873999999999995 8.829 L 18.869999999999994 8.971 C 18.84149536103524 9.76389306322452 18.695228716166177 10.548138414861178 18.435999999999993 11.298 C 18.419999999999995 11.288 18.40599999999999 11.284 18.395999999999994 11.285 C 18.365999999999993 11.288 18.284999999999993 11.405 18.205999999999992 11.536 C 18.147999999999993 11.626 18.086999999999993 11.731 18.051999999999992 11.827 C 18.032980002825866 11.871268244728045 18.022789234563867 11.918825163284046 18.02199999999999 11.967 C 18.020047875744662 11.996695225417938 18.023434773770607 12.026499928046235 18.031999999999993 12.055 C 18.041999999999994 12.092 18.05399999999999 12.113 18.05399999999999 12.113 C 18.053001299634264 12.115333890105266 18.052001299479166 12.117667223800495 18.05099999999999 12.12 C 18.036096398731736 12.13957471495628 18.02645656890139 12.162641450621749 18.022999999999993 12.187 L 18.010999999999992 12.216 C 17.932581129165964 12.395277771444912 17.846501878007647 12.571106319353559 17.752999999999993 12.742999999999999 L 17.67599999999999 12.884999999999998 C 17.653044657051293 12.923562141207078 17.629710192738532 12.961897332578038 17.60599999999999 12.999999999999998 C 17.599067578619888 12.994731341264075 17.591708869321756 12.990048526256173 17.583999999999993 12.985999999999999 C 17.544658884451092 12.979648636744223 17.504363538972523 12.988206940208697 17.470999999999993 13.009999999999998 C 17.423999999999992 13.044999999999998 17.319999999999993 13.203999999999999 16.972999999999992 13.377999999999998 C 16.854999999999993 13.436999999999998 16.746999999999993 13.470999999999998 16.65299999999999 13.491999999999999 C 16.7866272022535 12.8090641022062 16.869520332326623 12.117173863289391 16.900999999999996 11.422 C 16.916606058691258 11.068398712570161 16.895155849301027 10.714135098109582 16.836999999999993 10.364999999999997 C 16.839999999999993 10.354999999999999 16.839999999999993 10.347999999999999 16.839999999999993 10.347999999999999 L 16.834999999999994 10.357999999999999 C 16.808615737059853 10.203570016314682 16.773898366227137 10.050680056301367 16.730999999999995 9.899999999999999 C 16.595418804450702 9.390333237327257 16.348106832633388 8.91722953433419 16.00699999999999 8.514999999999997 C 15.375999999999994 7.760999999999999 14.510999999999994 7.374999999999999 13.750999999999994 7.349999999999999 L 13.625999999999994 7.347999999999999 C 13.625999999999994 7.339999999999999 13.625999999999994 7.332999999999999 13.627999999999995 7.325999999999999 C 13.648999999999996 7.227999999999999 13.651999999999994 7.198999999999999 13.540999999999995 7.293999999999999 C 13.521198839464848 7.311135026930071 13.502179564029147 7.329153287869156 13.483999999999995 7.348 C 13.430999999999994 7.348999999999999 13.382999999999994 7.3519999999999985 13.337999999999994 7.354999999999999 C 13.334281419709145 7.319126933822322 13.3332785653725 7.283024177703185 13.334999999999994 7.246999999999999 C 13.338999999999993 7.170999999999999 13.358999999999993 7.119999999999999 13.247999999999994 7.214999999999999 C 13.189997174323244 7.26063347355586 13.141715409141035 7.317415549509584 13.105999999999995 7.381999999999999 C 13.055999999999994 7.389999999999999 13.025999999999994 7.3969999999999985 13.025999999999994 7.3969999999999985 L 13.070999999999994 7.394999999999999 L 13.023999999999994 7.402999999999999 C 13.007999999999994 7.360999999999999 12.970999999999993 7.297999999999998 12.975999999999994 7.2429999999999986 C 12.985999999999994 7.124999999999998 13.018999999999993 7.102999999999999 12.938999999999993 7.177999999999998 C 12.840999999999992 7.267999999999998 12.736999999999993 7.403999999999998 12.718999999999992 7.4769999999999985 L 12.622999999999992 7.506999999999999 C 12.604999999999992 7.488999999999999 12.548999999999992 7.4369999999999985 12.536999999999992 7.328999999999999 C 12.523999999999992 7.2189999999999985 12.524999999999991 7.1629999999999985 12.456999999999992 7.277999999999999 C 12.394828735613924 7.386420694853108 12.350909460246191 7.504327057186481 12.326999999999991 7.626999999999999 C 12.294999999999991 7.641999999999999 12.26399999999999 7.656999999999999 12.233999999999991 7.672999999999999 C 12.195534727384064 7.623676574807178 12.175387579669046 7.562528214198437 12.17699999999999 7.499999999999999 C 12.17199999999999 7.355999999999999 12.21699999999999 7.238999999999999 12.10999999999999 7.4319999999999995 C 12.043601522961387 7.560285016985022 11.994506983051625 7.696808189610796 11.96399999999999 7.837999999999999 C 11.92799999999999 7.8629999999999995 11.89299999999999 7.888999999999999 11.85899999999999 7.916999999999999 C 11.854547627313943 7.860431476172612 11.851879635617848 7.803736652630596 11.85099999999999 7.746999999999999 C 11.84899999999999 7.604999999999999 11.871999999999991 7.451999999999999 11.78399999999999 7.721999999999999 C 11.75799999999999 7.800999999999998 11.73099999999999 7.913999999999999 11.71399999999999 8.043 C 11.30999999999999 8.427999999999999 11.06399999999999 8.959999999999999 11.06999999999999 9.614999999999998 L 11.06999999999999 9.621999999999998 C 11.06899999999999 9.738999999999999 11.07499999999999 9.849999999999998 11.083999999999989 9.951999999999998 C 11.103999999999989 10.189999999999998 11.14099999999999 10.389999999999999 11.190999999999988 10.556999999999999 C 11.095999999999988 10.687 11.087999999999989 11.245999999999999 11.180999999999989 11.374999999999998 C 11.253999999999989 11.478999999999997 11.676999999999989 11.724999999999998 11.766999999999989 11.773999999999997 C 11.80370564069496 11.79905302213311 11.835555848225022 11.830564397668171 11.860999999999988 11.866999999999997 C 11.975999999999988 12.054999999999998 11.975999999999988 12.433999999999997 11.887999999999987 12.628999999999998 C 11.780999999999988 12.866999999999997 11.994999999999987 12.913999999999998 12.172999999999988 12.948999999999998 C 12.350999999999988 12.984999999999998 12.587999999999987 12.925999999999998 12.635999999999987 12.830999999999998 C 12.682999999999987 12.735999999999997 12.481999999999987 12.521999999999998 12.398999999999987 12.082999999999998 C 12.314999999999987 11.643999999999998 12.528999999999987 11.608999999999998 12.528999999999987 11.608999999999998 C 12.528999999999987 11.608999999999998 12.623999999999988 11.632999999999997 12.765999999999988 11.857999999999999 C 12.875999999999987 12.033 12.992999999999988 12.171 13.101999999999988 12.270999999999999 C 13.046083111909475 12.34014367570437 12.977955394604233 12.398442020861095 12.900999999999987 12.443 C 13.020999999999987 12.448 13.140999999999988 12.392 13.204999999999988 12.356 C 13.227829639943208 12.372281597672954 13.251531615737472 12.387303976697488 13.275999999999987 12.401 C 13.259919115577404 12.418242331712202 13.243242331712189 12.434919115577417 13.225999999999987 12.451 C 13.262693671082264 12.447621036315974 13.298908455867096 12.44024395052647 13.333999999999987 12.429 C 13.360761521237201 12.44043664300674 13.389068096800534 12.447850269939993 13.417999999999987 12.451 C 13.572999999999986 12.463000000000001 13.987999999999987 12.083 13.987999999999987 12.012 C 13.987999999999987 11.994 13.972999999999987 11.972000000000001 13.949999999999987 11.949 C 13.907999999999987 11.904 13.829999999999988 11.849 13.742999999999986 11.772 C 13.703383518548826 11.736241469247473 13.666606110344201 11.697458020595322 13.632999999999987 11.656 C 13.551789407633223 11.547059813353348 13.502921828615943 11.41743942645645 13.491999999999987 11.282 L 13.491999999999987 11.272 L 13.488999999999987 11.241 C 13.488999999999987 11.241 13.495999999999986 11.234 13.504999999999987 11.221 L 13.504999999999987 11.225 L 13.508999999999986 11.215 C 13.560999999999986 11.135 13.658999999999986 10.836 13.038999999999985 10.137 C 12.779212367135626 9.844495036405997 12.465492861624906 9.604791604706246 12.114999999999988 9.431000000000001 C 12.072999999999986 8.959000000000001 12.264999999999986 8.518 12.740999999999985 8.301000000000002 L 12.735999999999985 8.306000000000003 L 12.743999999999984 8.300000000000002 C 12.970999999999984 8.198000000000002 13.260999999999983 8.145000000000003 13.620999999999984 8.164000000000003 C 14.310999999999984 8.200000000000003 14.840999999999985 8.523000000000003 15.210999999999984 9.009000000000004 C 15.724999999999984 9.721000000000004 15.948999999999984 10.789000000000003 15.785999999999984 11.865000000000004 C 15.717999999999984 11.930000000000003 15.730999999999984 11.940000000000003 15.772999999999984 11.942000000000004 C 15.757416497668551 12.033532444100416 15.739074819424237 12.124573865204006 15.717999999999982 12.215000000000003 L 15.690999999999985 12.230000000000004 C 15.567999999999985 12.304000000000004 15.619999999999985 12.303000000000004 15.690999999999985 12.322000000000005 L 15.684999999999985 12.342000000000004 C 15.664999999999985 12.407000000000004 15.641999999999985 12.472000000000005 15.618999999999984 12.535000000000004 C 15.589535222308214 12.543597582795025 15.560501592232411 12.553609179372888 15.531999999999984 12.565000000000003 C 15.396999999999984 12.618000000000004 15.451999999999984 12.625000000000004 15.519999999999984 12.656000000000002 L 15.563999999999984 12.678000000000003 C 15.531999999999984 12.758000000000003 15.497999999999983 12.838000000000003 15.462999999999983 12.915000000000003 C 15.436042534985456 12.919199528699695 15.409335743275053 12.924874721938155 15.382999999999983 12.932000000000002 C 15.240999999999984 12.968000000000002 15.294999999999984 12.982000000000003 15.358999999999984 13.022000000000002 C 15.372744005161167 13.030376102161243 15.386091709247012 13.039385802419188 15.398999999999983 13.049000000000001 C 15.36459410241142 13.120956784956 15.328921889411644 13.19230121095555 15.291999999999984 13.263000000000002 C 15.240281164793727 13.266096317677677 15.189014511590795 13.274473221795803 15.138999999999983 13.288000000000002 C 14.998999999999983 13.324000000000002 15.051999999999984 13.338000000000003 15.115999999999984 13.378000000000002 C 15.149999999999984 13.398000000000001 15.175999999999984 13.419000000000002 15.196999999999983 13.437000000000001 C 15.165987156880195 13.492373865425806 15.134318260312229 13.547377738412276 15.101999999999984 13.602 L 15.078999999999983 13.638 C 15.009454887085615 13.633773923744632 14.93971094077424 13.641899432052755 14.872999999999983 13.661999999999999 C 14.730999999999984 13.697999999999999 14.784999999999984 13.712 14.848999999999984 13.751999999999999 C 14.886156635611018 13.774883665050714 14.920988744091334 13.801342670530953 14.952999999999983 13.831 C 14.911767308690745 13.891533477118633 14.869763889529095 13.951538361635276 14.826999999999984 14.011 C 14.751695809768348 13.991977273759986 14.673059732240885 13.990267793813738 14.596999999999984 14.005999999999998 C 14.452999999999983 14.025999999999998 14.504999999999983 14.045999999999998 14.563999999999984 14.091999999999999 C 14.631999999999984 14.145 14.664999999999985 14.190999999999999 14.681999999999984 14.209999999999999 L 14.619999999999985 14.293999999999999 C 14.575999999999985 14.235999999999999 14.470999999999986 14.169999999999998 14.373999999999985 14.100999999999999 C 14.286365954378212 14.039820062041677 14.187979952354842 13.995715992169133 14.083999999999985 13.970999999999998 C 14.035999999999985 13.970999999999998 13.884999999999986 14.238999999999999 13.066999999999986 14.167999999999997 C 12.247999999999987 14.096999999999998 12.196999999999987 14.017999999999997 12.124999999999986 14.017999999999997 C 12.054999999999986 14.017999999999997 11.901999999999985 14.074999999999998 11.896999999999986 14.076999999999996 L 11.862999999999985 14.056999999999997 C 11.527179350992691 13.84987825078234 11.202713028423497 13.624888228753905 10.890999999999984 13.382999999999996 C 10.426999999999985 13.012999999999998 10.170999999999985 12.735999999999997 10.170999999999985 12.735999999999997 C 10.170999999999985 12.735999999999997 10.307999999999986 12.610999999999997 10.123999999999985 12.451999999999996 C 10.017539016848515 12.352343784232307 9.904627813868222 12.259810046878634 9.785999999999984 12.174999999999997 C 9.709195313966939 12.114237073701773 9.628341572863631 12.058775416581321 9.543999999999986 12.008999999999997 C 9.513753905111075 11.967306468633375 9.484413701983952 11.92496322093855 9.455999999999987 11.881999999999996 C 9.328418616294764 11.67654052108983 9.207358265027093 11.467102778400857 9.092999999999988 11.253999999999996 C 9.00478211552005 11.080692355309946 8.921416352859664 10.904957327621858 8.842999999999986 10.726999999999995 C 8.682999999999987 10.366999999999997 8.572999999999988 10.044999999999996 8.496999999999987 9.762999999999996 C 8.42212488548351 9.459976257520177 8.372620409974076 9.151242264984987 8.348999999999986 8.839999999999996 C 8.346004050090896 8.759319851905135 8.347339302799762 8.67853706301867 8.352999999999987 8.597999999999995 C 8.452468631890659 8.520305308424811 8.510723002717127 8.40121567692513 8.510999999999987 8.274999999999995 C 8.510714689883208 8.068715741733731 8.357562131083911 7.894600961199334 8.152999999999986 7.867999999999995 C 7.9489999999999865 7.440999999999995 7.170999999999986 6.390999999999995 4.270999999999987 4.187999999999995 L 4.143999999999987 4.089999999999995 L 4.148999999999987 4.093999999999995 L 4.112999999999987 4.066999999999995 C 7.066999999999988 6.596999999999994 7.6429999999999865 7.585999999999995 7.7949999999999875 7.998999999999995 C 7.785435096044943 8.009525436877873 7.7764229719980955 8.020540255157352 7.767999999999987 8.031999999999995 C 7.76200257424041 8.027663103448567 7.756002573182139 8.023329769350926 7.749999999999983 8.018999999999991 C 7.767999999999987 8.018999999999995 7.774999999999988 8.013999999999994 7.774999999999988 8.013999999999994 C 7.774999999999988 8.013999999999994 7.102999999999988 7.467999999999994 5.987999999999988 6.783999999999994 C 4.868999999999988 6.096999999999993 4.238999999999988 5.934999999999993 4.107999999999988 5.906999999999994 L 4.080999999999988 5.900999999999994 C 4.080999999999988 5.900999999999994 4.286999999999988 6.090999999999994 4.254999999999988 6.185999999999994 C 4.244999999999989 6.217999999999994 4.086999999999988 6.207999999999994 3.8339999999999885 6.213999999999993 C 3.5906926368333965 6.21494316408137 3.347993370414546 6.23837619670112 3.108999999999988 6.283999999999994 C 2.548605791551724 6.382976909959661 2.0149520916459247 6.597528174120894 1.5419999999999856 6.913999999999995 C 0.237 7.783 -0.001 8.4 -0.001 8.4 C -0.001 8.4 0.549 7.632000000000001 1.5790000000000002 7.095000000000001 C 1.5650000000000002 7.432 1.5320000000000003 9.064 2.024 11.215 C 2.555 13.535 3.5549999999999997 15.702 3.638 15.879999999999999 C 3.642 16.058 3.654 16.151999999999997 3.654 16.151999999999997 C 3.654 16.151999999999997 3.802 14.361999999999998 4.41 12.504999999999997 C 4.585 12.787999999999997 5.168 13.621999999999996 6.486000000000001 14.600999999999997 C 8.114 15.810999999999996 8.856000000000002 16.136999999999997 8.886000000000001 16.148999999999997 C 8.887 16.305999999999997 8.891000000000002 16.388999999999996 8.891000000000002 16.388999999999996 C 8.891000000000002 16.388999999999996 8.896000000000003 16.288999999999994 8.909000000000002 16.125999999999994 C 8.953000000000003 16.060999999999993 9.207000000000003 15.695999999999994 9.461000000000002 15.455999999999994 C 9.62650023607801 15.293868296366929 9.807348336639524 15.14818510424793 10.001 15.020999999999994 C 10.033000000000001 15.130999999999993 10.064000000000002 15.224999999999994 10.094000000000001 15.296999999999993 C 10.074000000000002 15.199999999999994 10.058000000000002 15.106999999999994 10.042000000000002 15.014999999999993 C 10.149000000000001 15.024999999999993 10.580000000000002 15.080999999999994 11.248000000000001 15.407999999999994 C 11.591000000000001 15.575999999999993 11.857000000000001 15.802999999999994 12.046000000000001 16.002999999999993 C 12.041244507811683 16.004786032303763 12.03657298352226 16.006788114142086 12.032000000000002 16.008999999999993 C 12.032000000000002 16.008999999999993 12.155000000000001 16.12099999999999 12.301000000000002 16.411999999999992 C 12.054807065385663 16.402615321294515 11.808627029818917 16.430942887030962 11.571000000000002 16.49599999999999 C 11.540647193496502 16.431826924988744 11.50795870145096 16.36878483318663 11.473 16.30699999999999 C 11.46663646054951 16.260342400527147 11.453498022863773 16.21486319315344 11.434000000000001 16.17199999999999 C 11.407000000000002 16.11099999999999 11.339 16.07199999999999 11.270000000000001 16.03199999999999 C 11.239477461300629 16.00224083370191 11.204361124243635 15.9775918663446 11.166000000000002 15.958999999999989 C 11.142865317544302 15.938685875219601 11.124145812019224 15.913839986068135 11.111000000000002 15.885999999999989 C 11.027000000000003 15.70199999999999 10.313000000000002 15.897999999999989 10.169000000000002 16.06599999999999 C 9.994000000000002 16.26999999999999 9.960000000000003 16.529999999999987 10.029000000000002 16.67399999999999 C 10.050000000000002 16.71899999999999 10.099000000000002 16.75599999999999 10.167000000000002 16.78399999999999 C 10.169000000000002 17.00499999999999 10.304000000000002 17.53399999999999 10.571000000000002 17.91799999999999 C 10.519892497547232 17.698377684199215 10.483808928058622 17.475528231894565 10.463000000000001 17.250999999999987 C 10.454 17.090999999999987 10.463000000000001 16.976999999999986 10.478000000000002 16.900999999999986 C 10.525000000000002 17.228999999999985 10.652000000000001 17.584999999999987 11.055000000000001 18.025999999999986 C 10.807000000000002 17.485999999999986 10.835 17.163999999999987 10.860000000000001 16.881999999999987 L 10.869000000000002 16.837999999999987 L 10.875000000000002 16.836999999999986 C 10.911000000000001 17.099999999999987 11.017000000000001 17.370999999999984 11.357000000000001 17.800999999999984 C 11.351980303585956 17.79184739435196 11.347310266669991 17.782507320520036 11.343000000000002 17.772999999999985 L 11.357000000000001 17.793999999999986 C 11.1896900665348 17.478336468776 11.13100010776455 17.116356483546312 11.190000000000001 16.763999999999985 L 11.198 16.760999999999985 C 11.244 16.790999999999986 11.289 16.830999999999985 11.332 16.886999999999986 C 11.46 17.058999999999987 11.520000000000001 17.235999999999986 11.544 17.356999999999985 C 11.5165377473927 17.488860395721904 11.540506042378658 17.626230922208585 11.611 17.740999999999985 C 11.366000000000001 17.919999999999984 11.126000000000001 18.086999999999986 10.891 18.241999999999987 C 10.661 18.390999999999988 10.401 18.554999999999986 10.134 18.711999999999986 C 9.994 18.791999999999984 9.855 18.869999999999987 9.72 18.941999999999986 L 9.585 18.864999999999984 L 9.587000000000002 18.864999999999984 L 9.579000000000002 18.860999999999983 C 8.609000000000002 18.301999999999982 7.889000000000003 17.928999999999984 7.061000000000003 17.778999999999982 C 6.130000000000003 17.61199999999998 5.274000000000003 18.061999999999983 5.078000000000003 18.860999999999983 C 4.9500017068491475 19.391567142921037 5.171403206393483 19.945070891781878 5.630000000000003 20.240999999999982 L 5.642000000000002 20.24899999999998 C 5.655000000000002 20.258999999999983 5.668000000000002 20.26599999999998 5.682000000000002 20.27499999999998 L 5.742000000000002 20.310999999999982 L 5.7440000000000015 20.310999999999982 C 5.936000000000002 20.42099999999998 6.168000000000002 20.50199999999998 6.435000000000001 20.54799999999998 L 6.463000000000001 20.55299999999998 L 6.469000000000001 20.55299999999998 C 6.605343920656867 20.575789942328754 6.7429182619602805 20.590482347710672 6.881000000000002 20.59699999999998 C 7.856000000000001 20.64399999999998 9.037 20.18899999999998 10.204 19.61499999999998 C 10.304 19.66899999999998 10.406 19.72299999999998 10.51 19.78099999999998 C 13.057 21.18399999999998 14.608 21.365999999999982 16.664 20.508999999999983 C 16.162000000000003 20.659999999999982 15.456000000000001 20.864999999999984 14.570000000000002 20.852999999999984 C 14.5638298949195 20.849614734410757 14.557014637593392 20.847570157212925 14.550000000000002 20.846999999999984 L 14.551000000000002 20.852999999999984 C 14.334198903649662 20.849212840134786 14.117815799046133 20.832516612927723 13.903000000000002 20.802999999999983 L 13.903000000000002 20.801999999999982 L 13.873000000000003 20.79899999999998 L 13.873000000000003 20.79599999999998 C 13.872663876520157 20.796665267940387 13.87233054026442 20.79733194045186 13.872000000000003 20.79799999999998 C 13.336651560616163 20.720611843276 12.813614348195427 20.574053858304637 12.316000000000003 20.36199999999998 C 12.06142508227573 20.25462525664874 11.812740578951166 20.133787954362173 11.571000000000002 19.99999999999998 C 11.233754673497463 19.81373382427793 10.898404147874317 19.624057433542756 10.565000000000003 19.430999999999973 C 10.913000000000004 19.252999999999982 11.257000000000003 19.067999999999984 11.591000000000003 18.88599999999998 C 11.946000000000003 18.69699999999998 12.263000000000003 18.523999999999983 12.509000000000002 18.38599999999998 L 12.518000000000002 18.38199999999998 L 12.525000000000002 18.38099999999998 C 12.525000000000002 18.38099999999998 12.608000000000002 18.36299999999998 12.685000000000002 18.338999999999977 C 12.855000000000002 18.286999999999978 13.095000000000002 18.189999999999976 13.380000000000003 18.055999999999976 C 13.408000000000003 18.172999999999977 13.475000000000003 18.270999999999976 13.575000000000003 18.308999999999976 C 13.810000000000002 18.399999999999977 13.982000000000003 18.335999999999977 14.097000000000003 18.206999999999976 L 14.115000000000004 18.196999999999974 L 14.162000000000004 18.159999999999975 C 14.212000000000005 18.129999999999974 14.269000000000004 18.092999999999975 14.318000000000005 18.069999999999975 C 14.335479268175046 18.06222311067313 14.35315153221465 18.054887453901976 14.371000000000006 18.047999999999977 C 14.411000000000005 18.037999999999975 14.449000000000005 18.024999999999977 14.487000000000005 18.010999999999978 L 14.520000000000005 18.000999999999976 C 14.375000000000005 18.297999999999977 14.429000000000006 18.581999999999976 14.429000000000006 18.581999999999976 C 14.472000000000005 18.210999999999977 14.649000000000006 17.973999999999975 14.821000000000005 17.866999999999976 C 14.885000000000005 17.839999999999975 14.951000000000006 17.816999999999975 15.021000000000004 17.799999999999976 C 15.085000000000004 17.799999999999976 15.137000000000004 17.822999999999976 15.165000000000004 17.869999999999976 C 15.235000000000005 17.989999999999977 15.382000000000005 18.063999999999975 15.529000000000005 18.095999999999975 C 15.553000000000004 18.245999999999974 15.484000000000005 18.499999999999975 15.129000000000005 18.961999999999975 L 15.219000000000005 18.899999999999974 L 15.223000000000004 18.896999999999974 L 15.295000000000003 18.843999999999973 C 15.438000000000004 18.735999999999972 15.547000000000004 18.633999999999972 15.629000000000003 18.538999999999973 C 15.711133566647925 18.450136834760833 15.775914884333764 18.346690227985018 15.820000000000004 18.233999999999973 C 15.832000000000004 18.433999999999973 15.777000000000005 18.740999999999975 15.509000000000004 19.269999999999975 C 15.509000000000004 19.269999999999975 15.826000000000004 18.993999999999975 16.023000000000003 18.639999999999976 C 16.029000000000003 18.830999999999975 16.013 19.082999999999977 15.960000000000003 19.424999999999976 C 16.305000000000003 18.751999999999974 16.285000000000004 18.339999999999975 16.199 18.098999999999975 L 16.189 18.062999999999974 C 16.18731924949621 18.04111115966475 16.183976276672286 18.01938183630927 16.179 17.997999999999973 L 16.221 17.940999999999974 C 16.339 17.774999999999974 16.173000000000002 17.596999999999973 16.067 17.525999999999975 C 16.007 17.485999999999976 15.867 17.371999999999975 15.613 17.368999999999975 C 15.388 17.098999999999975 15.103 17.218999999999976 14.655 17.513999999999974 C 14.602018290144068 17.54902249501665 14.546535692428696 17.580106119037914 14.488999999999999 17.606999999999974 C 14.474187443208413 17.56643994842821 14.455780947595017 17.527284312305166 14.434 17.489999999999974 C 14.594 17.393999999999973 14.76 17.290999999999972 14.927999999999999 17.181999999999974 C 15.245 16.974999999999973 15.481 16.765999999999973 15.655999999999999 16.566999999999975 C 16.166 16.049999999999976 16.346 15.546999999999976 16.866 15.120999999999976 L 16.852999999999998 15.121999999999975 L 16.912999999999997 15.089999999999975 C 17.766999999999996 14.631999999999975 18.219999999999995 14.542999999999974 18.251999999999995 14.536999999999974 L 18.248999999999995 14.664999999999974 L 18.266999999999996 14.539999999999974 C 18.44524874000788 14.627286065572141 18.607787281712287 14.74352984591791 18.747999999999998 14.883999999999974 C 18.891394841147765 15.028134996787886 19.013310060398055 15.192148012740626 19.109999999999996 15.370999999999974 L 19.153999999999996 15.671999999999974 C 19.153999999999996 15.671999999999974 19.153999999999996 15.554999999999973 19.143999999999995 15.341999999999974 C 19.296999999999993 15.189999999999975 20.163999999999994 14.297999999999973 20.867999999999995 12.874999999999973 C 21.561999999999994 11.470999999999973 21.811999999999994 10.351999999999974 21.884999999999994 9.950999999999974 C 22.164173394664612 10.756403079570555 22.38638769485264 11.58043385289939 22.549999999999994 12.416999999999971 C 22.549999999999994 12.416999999999973 22.547999999999995 12.283999999999974 22.518999999999995 12.042999999999973 C 22.615999999999996 11.706999999999972 23.034999999999997 10.170999999999973 23.145999999999994 8.286999999999972 C 23.245999999999995 6.605999999999972 23.080999999999992 5.506999999999973 23.005999999999993 5.112999999999973 C 23.653999999999993 5.649999999999973 24.000999999999994 6.419999999999973 24.000999999999994 6.419999999999973 C 24.000999999999994 6.419999999999973 23.960999999999995 6.256999999999973 23.812999999999995 5.982999999999973 L 23.832999999999995 6.009999999999973 C 23.832999999999995 6.009999999999973 23.596999999999994 5.554999999999973 23.188999999999997 5.104999999999973 C 23.13770603688194 5.046726503838915 23.085364174445054 4.989383826519522 23.031999999999996 4.932999999999971 C 22.599999999999998 4.4739999999999736 22.177999999999997 4.315999999999973 21.861999999999995 4.2609999999999735 C 21.761999999999993 4.240999999999974 21.658999999999995 4.230999999999973 21.553999999999995 4.230999999999973 L 21.534999999999997 4.230999999999973 C 21.409999999999997 4.227999999999973 21.333999999999996 4.232999999999973 21.327999999999996 4.204999999999973 C 21.307999999999996 4.109999999999974 21.437999999999995 3.9199999999999733 21.437999999999995 3.9199999999999733 C 21.437999999999995 3.9199999999999733 21.260999999999996 3.965999999999973 20.883999999999997 4.249999999999973 C 20.653999999999996 4.416999999999973 20.363999999999997 4.6599999999999735 20.030999999999995 5.009999999999973 C 19.718329210629147 5.326996181298794 19.42130950169719 5.659057541284522 19.140999999999995 6.004999999999978 L 19.065999999999995 6.099999999999973 C 19.058742553700373 6.093799630460647 19.05105681673797 6.088118868358001 19.042999999999996 6.082999999999973 C 19.118999999999996 5.751999999999972 19.404999999999994 4.964999999999972 20.830999999999996 2.9709999999999726 z M 11.92 14.09 C 11.924037861551708 14.09192336358784 11.928038592198703 14.093923728911337 11.932 14.096 L 11.92 14.09 z M 11.657 16.695999999999998 C 11.745 16.74 11.847 16.802 11.96 16.889999999999997 L 11.955 16.889999999999997 C 11.899606629977873 16.904001658008298 11.847129963023452 16.927700797923197 11.8 16.959999999999997 C 11.748109208323509 16.89134494404976 11.705726313264934 16.815997575056738 11.674000000000001 16.735999999999997 L 11.657000000000002 16.695999999999998 z M 6.802 18.266 C 6.933999999999999 18.266 7.077999999999999 18.279999999999998 7.234 18.313999999999997 L 7.254 18.318999999999996 L 7.271 18.322999999999997 C 7.381 18.349999999999998 7.494 18.384999999999998 7.608 18.424999999999997 L 7.665 18.445999999999998 C 7.856 18.52 8.06 18.601999999999997 8.276 18.694 C 8.596 18.833 8.895 18.971 9.113999999999999 19.069 L 9.296999999999999 19.157 C 9.075999999999999 19.263 8.873 19.353 8.719999999999999 19.418 C 7.705999999999999 19.834 6.889999999999999 19.954 6.381999999999999 19.808999999999997 C 5.4369999999999985 19.54 5.621999999999999 18.272999999999996 6.801999999999999 18.266999999999996 z"
      stroke-linecap="round"/>
</g>
    <g transform="matrix(0.59 0 0 0.59 540 680.46)">
		<text xml:space="preserve" font-family="Raleway" font-size="105" font-style="normal" font-weight="900"
              style="stroke: none; stroke-width: 1; stroke-dasharray: none; stroke-linecap: butt; stroke-dashoffset: 0; stroke-linejoin: miter; stroke-miterlimit: 4; fill: rgb(0,0,0); fill-rule: nonzero; opacity: 1; white-space: pre;"><tspan x="-249.64" y="32.98" >LLVMEMB</tspan></text>
</g>
</svg>